<?xml version="1.0" encoding="UTF-8"?>
<!-- Generated by Pixelmator Pro 3.7.1 -->
<svg width="4521" height="645" viewBox="0 0 4521 645" xmlns="http://www.w3.org/2000/svg">
    <path id="Shape" fill="#ffffff" fill-rule="evenodd" stroke="none" d="M 1712.926392 592.73053 C 1712.810303 594.505676 1712.686279 598.03302 1712.58606 605.179932 L 1705.208618 605.434509 C 1698.071655 605.680725 1697.739014 605.73645 1695.002686 607.143311 C 1693.446899 607.943176 1691.435181 609.460876 1690.532104 610.515991 C 1689.628906 611.571045 1688.526611 613.395691 1688.082642 614.57074 C 1687.397827 616.382751 1687.252197 618.702698 1687.123779 629.848206 C 1687.030029 637.991272 1687.148438 643.384033 1687.435425 644.027161 C 1687.44043 644.038391 1687.445313 644.049438 1687.450562 644.060425 C 1687.926758 645.065002 1690.52478 645.063782 1931.248047 644.949341 L 2174.597656 644.833618 L 2174.597656 630.770386 C 2174.597656 616.707153 2174.597656 616.707153 2173.398438 614.150146 C 2172.73877 612.743774 2171.531494 610.832764 2170.715576 609.903564 C 2169.899658 608.974243 2168.053223 607.635071 2166.612305 606.92749 C 2164.129639 605.708313 2163.60376 605.632935 2156.554199 605.487 L 2149.115723 605.332947 L 2148.789551 597.648438 C 2148.499512 590.808228 2148.333496 589.670105 2147.278809 587.289429 C 2146.510986 585.55658 2145.289551 583.891663 2143.809326 582.560852 C 2142.337402 581.237366 2140.678955 580.260986 2139.146973 579.815613 C 2137.046875 579.205078 2112.587891 579.138 1929.749512 579.241638 C 1722.72998 579.358887 1722.72998 579.358887 1720.749634 580.416321 C 1719.6604 580.997925 1717.973389 582.192749 1717.000732 583.071472 C 1716.028076 583.950195 1714.760986 585.756714 1714.184814 587.085999 C 1713.562622 588.521912 1713.051758 590.812927 1712.926392 592.73053 Z M 1685.648682 254.761353 C 1688.077881 252.220215 1691.642334 248.481079 1697.074219 242.76355 L 1717.171631 262.821045 C 1728.225098 273.852539 1737.495728 282.955078 1737.772827 283.048828 C 1738.049927 283.142456 1748.936035 272.504761 1761.964111 259.409424 C 1774.992188 246.313965 1799.045776 222.125488 1815.416504 205.656982 C 1842.9021 178.007568 1845.137207 175.643188 1844.601318 174.785156 C 1844.282227 174.274048 1816.896973 146.736938 1783.745239 113.591675 C 1728.230591 58.087646 1723.845581 53.703491 1722.019653 54.590027 C 1721.863037 54.666077 1721.72522 54.780884 1721.575684 54.905518 C 1720.53418 55.773315 1708.201294 67.970825 1694.169312 82.010864 C 1680.137329 96.051025 1656.674927 119.548462 1642.030518 134.227417 C 1618.886475 157.426239 1615.859741 160.460144 1616.488281 162.037415 C 1616.582764 162.274719 1616.760132 162.479034 1616.964111 162.714111 C 1617.821899 163.702637 1627.623291 173.507324 1638.744995 184.502319 C 1649.866577 195.497314 1659.503906 205.188843 1660.161133 206.03894 C 1660.474365 206.444092 1660.705444 206.743073 1660.764404 207.072815 C 1660.930298 208.001221 1659.731201 209.173615 1655.156006 213.646973 C 1651.74585 216.981201 1646.131226 222.406494 1642.678955 225.703247 C 1639.226807 229.000122 1634.333496 233.668579 1631.805176 236.077759 C 1629.276611 238.486938 1623.801636 243.68457 1619.638306 247.628052 C 1615.474854 251.571411 1608.685059 257.981079 1604.549561 261.871704 C 1600.414185 265.762329 1593.460327 272.184204 1589.096558 276.142578 C 1584.73291 280.10083 1576.298462 287.696777 1570.353394 293.022339 C 1564.408325 298.3479 1556.255981 305.545288 1552.237061 309.016357 C 1548.218262 312.487549 1542.252197 317.632446 1538.979126 320.449341 C 1535.706177 323.266357 1530.807007 327.481079 1528.092041 329.815308 C 1525.377075 332.149475 1520.666748 336.105652 1517.624634 338.606628 C 1514.58252 341.107666 1509.896606 345.045837 1507.211426 347.358032 C 1504.526245 349.670288 1498.647095 355.146423 1494.146729 359.527222 C 1489.64624 363.90802 1482.654297 370.718384 1478.608887 374.661377 C 1474.563599 378.604431 1463.992188 388.989502 1455.116821 397.739258 C 1446.241455 406.489075 1432.430664 420.120667 1424.426025 428.031677 C 1416.421509 435.942688 1403.548828 448.640076 1395.820068 456.248047 C 1388.091309 463.856018 1372.064575 479.678406 1360.2052 491.408936 C 1348.345703 503.139526 1337.640869 514.018005 1336.416504 515.583435 C 1335.192261 517.148865 1333.504395 519.793091 1332.665649 521.459473 C 1331.826782 523.125854 1330.500122 526.30481 1329.717285 528.523804 C 1328.934448 530.742798 1328.069946 534.360596 1327.796265 536.563354 C 1327.445923 539.382263 1327.44104 541.737854 1327.779663 544.517151 C 1328.044312 546.688965 1328.692017 550.022095 1329.219116 551.924072 C 1329.746216 553.826111 1330.777222 556.627197 1331.510132 558.148804 C 1332.243042 559.67041 1333.728149 562.264038 1334.810303 563.912415 C 1335.892456 565.560791 1338.027344 568.197632 1339.554565 569.772034 C 1341.081787 571.346436 1343.472412 573.491028 1344.867188 574.537781 C 1346.261963 575.584534 1348.796997 577.148621 1350.500488 578.013428 C 1352.203979 578.878235 1355.212524 580.129028 1357.186279 580.792847 C 1359.159912 581.456726 1361.708496 582.159363 1362.849731 582.354248 C 1363.990967 582.549194 1367.2323 582.733032 1370.052734 582.762878 C 1374.12561 582.805908 1376.110718 582.581238 1379.699219 581.670898 C 1382.184326 581.040527 1385.526001 579.912415 1387.125244 579.164063 C 1388.724487 578.41571 1391.438232 576.884399 1393.155762 575.761169 C 1394.880127 574.633484 1398.886108 571.058533 1402.101074 567.778198 C 1405.303467 564.510803 1409.557007 560.077942 1411.553467 557.927368 C 1413.549927 555.776794 1416.590576 552.515259 1418.310547 550.679626 C 1420.030396 548.843933 1422.947266 545.727539 1424.792358 543.754211 C 1426.637451 541.780884 1429.843262 538.347229 1431.916138 536.123901 C 1433.989136 533.900574 1437.608154 530.031982 1439.958618 527.527039 C 1442.30896 525.022095 1446.203125 520.842529 1448.612305 518.239136 C 1451.021484 515.635742 1454.682983 511.72345 1456.748901 509.545105 C 1458.814819 507.366821 1462.134766 503.840881 1464.126343 501.709595 C 1466.118042 499.578308 1469.407471 496.056702 1471.436279 493.883667 C 1473.465088 491.710693 1476.63916 488.328796 1478.489868 486.368286 C 1480.340576 484.407837 1483.789673 480.771057 1486.154419 478.286621 C 1488.519165 475.802185 1491.777222 472.320557 1493.394531 470.549744 C 1495.011841 468.778931 1497.946289 465.617798 1499.915527 463.525085 C 1501.884766 461.432373 1504.741699 458.372131 1506.264404 456.724548 C 1507.787109 455.076965 1510.645386 452.013367 1512.616211 449.916504 C 1514.586914 447.819641 1517.557861 444.651611 1519.218018 442.876404 C 1520.878296 441.101257 1524.353027 437.321655 1526.939697 434.477356 C 1529.526367 431.633057 1535.318115 425.286438 1539.810059 420.373718 C 1544.30188 415.460999 1549.899414 409.024048 1552.248779 406.069397 C 1554.598145 403.114685 1558.732666 397.945679 1561.436768 394.582581 C 1564.140869 391.219482 1568.44812 385.977966 1571.008545 382.934814 C 1573.569092 379.891602 1577.422852 375.258179 1579.57251 372.638306 C 1581.722168 370.018433 1584.130981 367.065308 1584.925415 366.075806 C 1585.719727 365.086304 1587.508545 362.976257 1588.900391 361.386902 C 1590.292236 359.797485 1593.726318 355.773743 1596.531738 352.445313 C 1599.33728 349.116821 1603.254517 344.535339 1605.236816 342.264221 C 1607.218994 339.993042 1610.374756 336.387878 1612.249512 334.252747 C 1614.124146 332.117554 1616.925293 329.021484 1618.474243 327.372559 C 1620.023071 325.723511 1622.224121 323.333496 1623.365234 322.061279 C 1624.50647 320.789063 1626.788818 318.200317 1628.437256 316.308472 C 1630.085693 314.416626 1633.017212 311.204346 1634.951904 309.170288 C 1636.886597 307.136108 1639.480225 304.33374 1640.715576 302.942627 C 1641.950806 301.551636 1643.999023 299.295044 1645.266968 297.927856 C 1646.535034 296.560791 1648.506104 294.456055 1649.647339 293.250732 C 1650.788574 292.04541 1653.5896 289.019165 1655.87207 286.525757 C 1658.154419 284.032349 1661.370605 280.599976 1663.018921 278.898315 C 1664.667358 277.196533 1667.675903 273.989258 1669.704712 271.770874 C 1671.733521 269.55249 1675.157104 265.857422 1677.312744 263.55957 C 1679.468262 261.261841 1683.219482 257.302612 1685.648682 254.761353 Z M 914 137 L 743 137 L 743 142.406128 C 743 147.812378 743 147.812378 747.921997 148.489258 C 750.62915 148.861572 755.484863 150.415161 758.712402 151.941528 C 762.224121 153.602295 766.192383 156.547729 768.593994 159.276123 C 770.876709 161.869385 775.463501 169.800049 779.231079 177.667725 C 782.874146 185.275513 789.375122 200.062866 793.67749 210.528564 C 797.979858 220.994263 829.625 299.404297 864 384.773071 C 922.528137 530.125061 926.24762 539.362122 931.00061 539.928711 C 931.323181 539.967163 931.650452 539.965698 932 539.964111 C 937.5 539.939209 937.5 539.939209 990.945313 413.464905 C 1020.340332 343.904053 1044.704834 287.3302 1045.089111 287.745361 C 1045.473145 288.1604 1067.525879 345.087524 1094.095215 414.25 C 1142.403076 540 1142.403076 540 1148.060791 540 C 1153.718506 540 1153.718506 540 1170.822021 494.98584 C 1180.22876 470.228027 1206.227051 401.715515 1228.595947 342.73584 C 1250.9646 283.756104 1273.324219 225.150024 1278.283691 212.5 C 1283.243164 199.849976 1289.541748 184.174805 1292.280762 177.66626 C 1296.30957 168.092529 1298.33374 164.672241 1302.880371 159.757324 C 1306.261719 156.101807 1310.488525 152.759644 1313.493164 151.365845 C 1316.239258 150.091919 1320.401855 148.762329 1322.743164 148.411255 C 1327 147.772949 1327 147.772949 1327 142.386475 C 1327 137 1327 137 1276 137 C 1225 137 1225 137 1225 142.351807 C 1225 147.703613 1225 147.703613 1232.75 148.321655 C 1237.012451 148.661743 1242.847168 149.558472 1245.716309 150.314697 C 1248.585205 151.070801 1252.703369 152.86145 1254.867676 154.293701 C 1257.490479 156.029419 1259.712891 158.757935 1261.531494 162.474731 C 1264.091309 167.706665 1264.231201 168.683472 1263.796631 178.275757 C 1263.383057 187.400757 1262.743896 190.220093 1257.849854 204.5 C 1254.833984 213.300049 1239.165771 255.150024 1223.03125 297.5 C 1206.896729 339.849976 1191.825439 379.362122 1189.539307 385.304749 L 1185.382813 396.109436 L 1148.505371 300.304749 C 1128.222656 247.612183 1109.416748 198.199951 1106.7146 190.5 C 1103.869141 182.391479 1101.580811 173.93811 1101.276855 170.412231 C 1100.879395 165.798828 1101.186523 163.409302 1102.545166 160.546021 C 1103.53125 158.467896 1106.084961 155.502319 1108.219727 153.955811 C 1110.354492 152.409302 1114.440918 150.639038 1117.300537 150.021851 C 1120.1604 149.404541 1126.887451 148.62915 1132.25 148.298706 C 1142 147.697876 1142 147.697876 1142 142.348999 L 1142 137 L 952 137 L 952 142.5 C 952 148 952 148 957.25 148.017334 C 960.137451 148.026855 965.588623 148.689087 969.363525 149.488892 C 973.138428 150.288696 978.157227 152.074097 980.516113 153.456543 C 982.875 154.838989 987.3396 158.770874 990.437256 162.19397 C 994.273438 166.432861 997.776611 171.938965 1001.421875 179.458862 C 1004.365723 185.531494 1009.931641 198.375 1013.790771 208 C 1017.649658 217.625 1023.520752 232.531372 1026.837158 241.125366 L 1032.867188 256.750732 L 1002.183594 330.866272 C 985.307617 371.629883 971.274902 404.982056 971 404.982239 C 970.725098 404.982422 952.281738 359.874023 930.014893 304.741333 C 907.748047 249.608643 887.626587 198.875 885.300781 192 C 882.974854 185.125 880.700928 177.025024 880.247681 174 C 879.794434 170.974976 879.712158 166.783325 880.064941 164.685181 C 880.417603 162.587158 881.601196 159.662109 882.695068 158.185181 C 883.78894 156.708374 886.164551 154.492188 887.974365 153.260498 C 889.784058 152.028687 892.8927 150.557007 894.882324 149.989868 C 896.87207 149.422852 901.987549 148.676392 906.25 148.331177 C 914 147.703613 914 147.703613 914 142.351807 L 914 137 Z M 3729.445801 479.473816 C 3728.060059 470.696411 3727.908691 454.087646 3728.5 212.537598 L 3861.45459 376.268799 C 3994.408691 540 3994.408691 540 3999.169922 540 C 4003.931152 540 4003.931152 540 4004.280762 364.75 C 4004.596191 206.781006 4004.791992 188.782593 4006.27002 182.224854 C 4007.171875 178.223511 4009.359375 172.229126 4011.131836 168.903931 C 4012.904297 165.578735 4016.285645 161.157837 4018.646973 159.079712 C 4021.271973 156.768799 4025.474121 154.469238 4029.46582 153.158813 C 4033.055664 151.980347 4040.494141 150.268677 4045.996094 149.354858 C 4056 147.693481 4056 147.693481 4056 142.34668 C 4056 137 4056 137 3991 137 L 3926 137 L 3926 142.5 C 3926 148 3926 148 3932.041992 148 C 3935.365234 148 3941.552734 148.709961 3945.791992 149.577637 C 3950.03125 150.445313 3956.333008 152.542236 3959.795898 154.237427 C 3963.756836 156.176514 3967.896484 159.2948 3970.959473 162.64624 C 3974.393555 166.40332 3976.428711 169.818481 3977.866211 174.23645 C 3978.987305 177.681396 3980.426758 182.974976 3981.065918 186 C 3981.821289 189.57959 3982.378418 209.133423 3982.661133 242 C 3982.899902 269.775024 3982.961426 312.412354 3982.797852 336.749634 L 3982.5 380.999268 L 3885.5 259.014282 L 3788.5 137.029175 L 3718.75 137.014648 C 3659.680908 137.002258 3650.635498 137.000336 3649.250488 140.256775 C 3649 140.845581 3649 141.540955 3649 142.362061 C 3649 147.724121 3649 147.724121 3656.563477 148.409546 C 3660.723145 148.786499 3666.730469 149.905273 3669.912598 150.89563 C 3673.094727 151.886108 3677.678711 154.076416 3680.099121 155.763184 C 3682.519531 157.449829 3687.021484 161.455688 3690.103516 164.664917 C 3693.185059 167.874268 3698.260742 173.715698 3701.381836 177.646118 L 3707.057129 184.792114 L 3706.736816 331.646057 C 3706.449219 463.276245 3706.24707 479.186462 3704.787109 485.122009 C 3703.891113 488.764099 3701.799316 494.435913 3700.138184 497.726013 C 3698.368164 501.232544 3695.004883 505.608398 3692.010742 508.300293 C 3689.144531 510.877258 3684.401367 513.839539 3681.20166 515.050598 C 3678.065918 516.237549 3672.125 517.820984 3668 518.569458 C 3663.875 519.317871 3657.912598 519.945923 3654.75 519.965088 C 3649 520 3649 520 3649 525.5 L 3649 531 L 3788 531 L 3788 525.5 C 3788 520 3788 520 3779.209961 520 C 3774.375488 520 3767.779785 519.312195 3764.552246 518.471619 C 3761.325195 517.630981 3755.598633 515.321594 3751.82666 513.339661 C 3748.055176 511.357666 3743.133301 507.954346 3740.88916 505.776672 C 3738.645508 503.598999 3735.506836 499.034058 3733.915039 495.632385 C 3732.137207 491.832947 3730.413574 485.60083 3729.445801 479.473816 Z M 4378.935059 403 C 4379.563965 406.893005 4379.987793 428.988953 4380 506.682617 L 4369.584473 509.880737 C 4363.855957 511.639648 4354.293457 514.073547 4348.334473 515.289429 C 4339.663086 517.058655 4334.105957 517.5 4320.5 517.5 C 4310.83252 517.5 4300.049316 516.917114 4295.5 516.14856 C 4291.100098 515.405273 4283.899902 513.670593 4279.5 512.293762 C 4275.100098 510.916931 4268.310547 508.325684 4264.412598 506.5354 C 4260.514648 504.745178 4253.945313 500.999817 4249.814941 498.212463 C 4245.684082 495.42511 4239.490723 490.330505 4236.05127 486.891052 C 4232.611816 483.45166 4227.55127 477.456604 4224.806152 473.568787 C 4222.061035 469.680969 4217.848145 462.604736 4215.444336 457.843872 C 4213.041016 453.083008 4209.259766 443.76001 4207.041992 437.126038 C 4204.824707 430.492126 4201.677246 418.468018 4200.047852 410.405762 C 4198.418457 402.343445 4196.278809 388.491516 4195.29248 379.623535 C 4194.056641 368.506226 4193.5 355.892944 4193.5 339 C 4193.5 325.525024 4194.092285 308.650024 4194.815918 301.5 C 4195.540039 294.349976 4197.020508 283.324951 4198.106934 277 C 4199.192871 270.675049 4201.463867 259.875 4203.153809 253 C 4204.84375 246.125 4207.799805 236.224976 4209.723145 231 C 4211.646484 225.775024 4215.22998 217.584106 4217.686523 212.797852 C 4220.143066 208.011719 4224.373535 200.934204 4227.086914 197.069946 C 4229.800781 193.205811 4235.278809 186.754395 4239.260742 182.733521 C 4243.242188 178.712769 4249.424805 173.343628 4253 170.802124 C 4256.575195 168.260742 4263.166016 164.352051 4267.646973 162.116211 C 4272.127441 159.880371 4279.615234 156.943604 4284.286133 155.589966 C 4288.95752 154.236328 4297.216309 152.577393 4302.639648 151.90332 C 4308.805664 151.136841 4317.932617 150.896973 4327 151.262817 C 4338.478027 151.726074 4343.896973 152.467529 4353 154.820557 C 4359.325195 156.455444 4368.219238 159.375732 4372.764648 161.310059 C 4377.310059 163.244385 4384.735352 166.997192 4389.264648 169.649414 C 4393.793945 172.301758 4400.424805 176.657837 4404 179.329468 C 4407.575195 182.001221 4413.813965 187.407471 4417.864258 191.343506 C 4421.914551 195.279663 4427.948242 201.875 4431.271973 206 C 4434.595703 210.125 4439.260742 216.529175 4441.63916 220.231567 C 4444.017578 223.93396 4448.283691 231.583984 4451.119629 237.231567 C 4453.955566 242.879272 4457.972168 251.775024 4460.04541 257 C 4463.81543 266.5 4463.81543 266.5 4469.157715 266.5 C 4474.5 266.5 4474.5 266.5 4474.5 197.5 C 4474.5 128.5 4474.5 128.5 4469.321289 128.200195 C 4467.286621 128.082397 4466.051758 128.010864 4465.06543 128.471863 C 4463.541504 129.184204 4462.611816 131.16803 4460.245605 136.217163 C 4458.102051 140.791382 4454.899902 146.183105 4453.130371 148.198975 C 4451.360352 150.214844 4447.868652 152.853271 4445.371582 154.062134 C 4441.668945 155.854614 4439.693359 156.16333 4434.665527 155.735229 C 4430.934082 155.417358 4423.368164 153.341064 4415.5 150.475708 C 4408.350098 147.871704 4394.174805 142.910645 4384 139.451172 C 4373.825195 135.991577 4361.225098 132.434326 4356 131.546143 C 4350.774902 130.658081 4340.424805 129.430054 4333 128.817261 C 4325.19873 128.173584 4311.057129 127.945801 4299.5 128.277832 C 4288.5 128.593872 4274.801758 129.592529 4269.05957 130.49707 C 4263.317383 131.401733 4252.676758 133.63855 4245.414063 135.467896 C 4238.151367 137.297241 4226.874512 140.9104 4220.354492 143.496948 C 4213.834473 146.083618 4204.674805 150.252319 4200 152.760742 C 4195.325195 155.269287 4187.750977 159.776855 4183.168457 162.777588 C 4178.586426 165.77832 4171.611328 170.807007 4167.668457 173.952393 C 4163.726074 177.097778 4156.980469 182.969727 4152.678223 187.001221 C 4148.376465 191.032715 4141.229004 198.644165 4136.794434 203.915527 C 4132.360352 209.187012 4125.42627 218.491577 4121.385742 224.592529 C 4117.344727 230.693359 4111.362305 241.268311 4108.091797 248.092529 C 4104.820801 254.916626 4100.72998 264.775024 4099.000488 270 C 4097.271484 275.224976 4095.00293 283.099976 4093.958984 287.5 C 4092.915039 291.900024 4091.374512 300.093018 4090.535645 305.706665 C 4089.697266 311.320374 4088.717773 322.36554 4088.359375 330.251587 C 4087.959473 339.052124 4088.175781 349.593262 4088.918945 357.544861 C 4089.585449 364.670227 4091.036621 375.224976 4092.14502 381 C 4093.25293 386.775024 4095.75293 396.450012 4097.700195 402.5 C 4099.647949 408.549988 4103.190918 417.683838 4105.574707 422.797424 C 4107.958008 427.911011 4111.980469 435.509094 4114.51416 439.682068 C 4117.047363 443.855042 4121.652832 450.696167 4124.748047 454.884644 C 4127.843262 459.073059 4134.90332 467.161499 4140.4375 472.858887 C 4145.972168 478.556274 4154.549805 486.478638 4159.5 490.464172 C 4164.450195 494.449707 4172.620117 500.415527 4177.655762 503.721497 C 4182.691406 507.027527 4191.916504 512.3479 4198.155762 515.544617 C 4204.39502 518.741333 4213.730469 523.088623 4218.900391 525.2052 C 4224.070801 527.321838 4233.295898 530.38147 4239.400391 532.004395 C 4245.505371 533.627319 4255 535.661987 4260.5 536.525879 C 4266 537.389771 4274.325195 538.463501 4279 538.912048 C 4283.674805 539.360535 4297.487793 539.788818 4309.695313 539.863708 C 4321.902832 539.93866 4337.652832 539.525574 4344.695313 538.945679 C 4351.737793 538.365784 4363.799805 536.993652 4371.5 535.896484 C 4379.200195 534.799316 4391.799805 532.530334 4399.5 530.854248 C 4407.200195 529.178162 4420.700195 525.637451 4429.5 522.985962 C 4438.299805 520.334473 4452.024902 515.531982 4460 512.313782 L 4474.5 506.462524 L 4475 453.481262 C 4475.5 400.5 4475.5 400.5 4478.163574 395.5 C 4479.628418 392.75 4482.585449 388.799927 4484.734375 386.721985 C 4486.883301 384.644104 4490.983887 382.054016 4493.84668 380.966309 C 4496.709473 379.87854 4503.427246 378.487671 4508.775879 377.875427 C 4514.124023 377.263184 4519.0625 376.604919 4519.75 376.412537 C 4520.538086 376.192017 4521 374.203308 4521 371.031372 C 4521 366 4521 366 4425 366 C 4329 366 4329 366 4329 370.852722 C 4329 375.705444 4329 375.705444 4339.515625 376.385254 C 4345.299316 376.759216 4352.797363 377.926025 4356.178223 378.978271 C 4359.559082 380.030518 4364.749023 382.560852 4367.711426 384.601257 C 4370.673828 386.641602 4374.174805 390.153564 4375.491699 392.405518 C 4376.808105 394.657471 4378.357422 399.424988 4378.935059 403 Z M 1723.234985 534.120361 C 1723.480225 534.759399 1728.08374 534.837097 1766.445801 534.84967 C 1800.802246 534.860901 1809.500244 534.745361 1809.974121 534.271606 C 1810.451904 533.793762 1810.567505 516.649597 1810.573242 445.396667 C 1810.577271 396.841064 1810.421997 356.748535 1810.228271 356.302124 C 1809.915527 355.581604 1809.536377 355.718445 1806.852051 357.520569 C 1805.188843 358.637085 1802.133423 360.402649 1800.062256 361.444031 C 1797.990967 362.485413 1794.787109 363.842163 1792.942139 364.459045 C 1791.097412 365.075928 1787.720581 365.905457 1785.438232 366.302429 C 1783.006104 366.725525 1778.616455 367.024231 1774.83313 367.024231 C 1771.063477 367.024231 1766.651489 366.724854 1764.228027 366.304626 C 1761.945679 365.908813 1758.273926 364.983521 1756.068604 364.248352 C 1753.863281 363.513184 1750.232178 361.991516 1747.999512 360.866882 C 1745.766846 359.742249 1742.120239 357.524353 1739.895996 355.938232 C 1737.671753 354.352112 1734.376343 351.581604 1732.572754 349.781555 C 1730.769409 347.981506 1728.047241 344.906433 1726.523682 342.948059 C 1725 340.989685 1723.574951 339.49762 1723.356934 339.632385 C 1723.137939 339.767761 1722.960571 383.157532 1722.960571 436.641235 C 1722.960571 489.861328 1723.084106 533.72699 1723.234985 534.120361 Z M 2052.757568 534.389343 C 2053.344482 534.625305 2072.077148 534.817993 2096.040771 534.834534 C 2132.565918 534.859802 2138.36499 534.772461 2138.848633 534.189758 C 2139.285156 533.663879 2139.400635 494.371033 2139.374512 355.402344 C 2139.356201 257.439941 2139.311523 167.460571 2139.275391 155.447998 C 2139.239258 143.435547 2139.107422 133.216675 2138.982666 132.73938 C 2138.762939 131.898804 2137.604004 131.871826 2102.037598 131.878662 C 2081.842773 131.882446 2065.092773 132.038086 2064.815674 132.224487 C 2064.538574 132.410767 2061.062988 138.009644 2057.091797 144.666382 C 2053.121094 151.32312 2046.234253 162.886719 2041.788086 170.363037 C 2037.342041 177.839355 2031.704346 187.332275 2029.26001 191.458252 C 2026.815674 195.584229 2022.707275 202.487427 2020.130127 206.798584 C 2017.553101 211.109741 2013.024658 218.735474 2010.067017 223.744629 C 2007.109375 228.753784 2002.296875 236.894287 1999.372559 241.834839 C 1996.448242 246.775269 1991.46582 255.177124 1988.300537 260.505493 C 1985.135376 265.833862 1979.050781 276.056152 1974.779541 283.22168 C 1970.508301 290.387329 1963.319336 302.474731 1958.804199 310.082642 C 1954.289063 317.690674 1948.965088 326.663208 1946.973145 330.021851 C 1944.981079 333.380371 1941.059814 340.020081 1938.259033 344.776672 C 1935.458496 349.533325 1932.857178 353.736328 1932.478516 354.116699 C 1931.866943 354.731201 1931.689087 354.679749 1930.884399 353.65564 C 1930.38623 353.021606 1927.30542 348.04187 1924.037842 342.589478 C 1920.770508 337.137085 1914.931763 327.28125 1911.06311 320.687744 C 1907.19458 314.094116 1901.865479 304.9646 1899.220947 300.39978 C 1896.576416 295.834961 1892.725342 289.247192 1890.662842 285.760254 C 1888.600342 282.273193 1886.788574 279.420166 1886.636719 279.420166 C 1886.484619 279.420166 1881.835327 284.036865 1876.30481 289.679443 C 1870.774292 295.322021 1858.76001 307.453857 1849.606445 316.639038 C 1839.966553 326.312012 1832.963379 333.691772 1832.963379 334.176636 C 1832.963379 334.637024 1836.158691 340.505005 1840.064087 347.216492 C 1843.969482 353.92804 1849.206787 362.891357 1851.702637 367.13501 C 1854.198364 371.378723 1859.348389 380.144409 1863.147217 386.61438 C 1866.945923 393.084351 1872.100098 401.854187 1874.601074 406.102905 C 1877.102051 410.351563 1882.036621 418.807556 1885.566895 424.893921 C 1889.097168 430.980347 1894.867676 440.781799 1898.390137 446.674988 C 1904.198364 456.392456 1904.92627 457.413513 1906.210693 457.644287 C 1906.989502 457.78418 1918.787598 457.883484 1932.428223 457.864807 C 1955.270508 457.833679 1957.282593 457.768494 1957.902588 457.03949 C 1958.272827 456.604187 1959.81543 454.117981 1961.330566 451.514648 C 1962.845703 448.911255 1965.672363 444.035217 1967.612061 440.679016 C 1969.551758 437.322815 1972.437378 432.398193 1974.024658 429.735413 C 1975.611816 427.072571 1979.527588 420.484009 1982.726318 415.094116 C 1985.925049 409.704163 1990.510742 401.972839 1992.916748 397.91333 C 1995.322754 393.853821 1999.369507 387.007019 2001.909668 382.698303 C 2004.449829 378.389526 2008.019775 372.322815 2009.843018 369.216614 C 2011.66626 366.110474 2015.995605 358.796753 2019.463867 352.963989 C 2022.932129 347.131165 2029.134521 336.652954 2033.246826 329.678955 C 2037.359131 322.704956 2042.523193 314.111206 2044.722168 310.581665 C 2046.921143 307.052124 2049.077637 303.944336 2049.514648 303.675659 C 2050.094238 303.319092 2050.467773 303.346191 2050.897949 303.776123 C 2051.37207 304.250244 2051.509766 326.745483 2051.604736 419.169189 C 2051.7229 533.973328 2051.7229 533.973328 2052.757568 534.389343 Z M 11.052612 520 C 0 520 0 520 0 531 L 349.769531 531 L 350.382813 525.75 C 350.720093 522.862488 352.806641 503.51355 355.019653 482.752319 C 357.232666 461.99115 360.295288 433.284424 361.825439 418.959717 L 364.607666 392.914734 L 358.620483 393.207397 C 352.633301 393.5 352.633301 393.5 349.520752 403.047974 C 347.80896 408.299316 344.721069 417.331726 342.658813 423.119934 C 340.596558 428.908142 336.23877 439.153137 332.974731 445.886597 C 329.710693 452.620056 324.893555 461.35199 322.27002 465.290833 C 319.646484 469.229675 314.351929 475.781738 310.504395 479.850952 C 306.656738 483.920166 300.766846 489.206116 297.415649 491.597473 C 294.064453 493.988831 287.987427 497.525574 283.911255 499.456787 C 279.835083 501.388062 273.125 503.827759 269 504.878357 C 264.875 505.928955 257.449951 507.284851 252.5 507.891479 C 247.550049 508.498047 230.900024 508.987854 215.5 508.979858 C 200.099976 508.971863 183.282104 508.521057 178.126953 507.978088 C 171.123779 507.240479 167.490356 506.303162 163.756714 504.271057 C 161.008179 502.775146 157.744263 500.189697 156.50354 498.525635 C 155.262695 496.861511 153.721558 493.856995 153.078857 491.848816 C 152.436035 489.840637 151.487671 483.090637 150.971313 476.848816 C 150.446777 470.507141 150.032593 405.717163 150.032593 330 C 150.032593 254.656982 150.447754 189.481445 150.967651 183.196045 C 151.654297 174.896729 152.535889 170.509277 154.284424 166.689941 C 155.59436 163.828735 158.143188 160.010742 159.948608 158.205322 C 161.753906 156.399902 164.964966 154.038208 167.084106 152.957153 C 169.203247 151.875977 173.763672 150.325073 177.218506 149.510498 C 181.085083 148.598877 188.593994 148.023926 196.75 148.014771 C 210 148 210 148 210 142.5 L 210 137 L 0 137 L 0 142.5 C 0 148 0 148 11.25 148.015625 C 17.4375 148.02417 24.984497 148.616211 28.020996 149.331055 C 31.057617 150.046021 35.639893 151.678711 38.203857 152.959229 C 40.767822 154.239746 44.726318 157.183228 47.000488 159.500488 C 49.274536 161.817627 51.823486 165.69043 52.664673 168.106689 C 53.581421 170.73999 54.538696 178.90979 55.054077 188.5 C 55.526978 197.300049 55.916138 262.775024 55.918945 334 C 55.921631 405.224976 55.532715 470.474976 55.054443 479 C 54.556885 487.871216 53.546021 496.340942 52.690674 498.804626 C 51.868774 501.17218 49.936279 504.927429 48.39624 507.149719 C 46.856201 509.371948 43.326538 512.48645 40.552368 514.070801 C 37.778198 515.655151 32.492798 517.63739 28.806885 518.475769 C 24.983887 519.345276 17.357544 520 11.052612 520 Z M 612 531 L 803 531 L 803 525.703125 C 803 520.40625 803 520.40625 796.484619 519.290222 C 792.901245 518.676392 787.163696 516.860352 783.734619 515.254578 C 779.491455 513.267517 775.809937 510.484497 772.208618 506.541687 C 769.298462 503.355347 764.401489 496.473694 761.32666 491.249023 C 758.251831 486.024353 752.486084 474.943481 748.513794 466.624817 C 744.541626 458.306152 709.401611 378.916382 670.424927 290.203125 C 602.388184 135.347626 599.671143 129.163513 596.990479 129.17926 C 596.879028 129.179871 596.767578 129.191284 596.651489 129.203125 C 593.80188 129.494141 592.361328 132.589478 522.982056 287.5 C 484.0625 374.400024 448.615234 452.924988 444.210327 462 C 439.805542 471.075012 433.568726 482.708496 430.35083 487.852234 C 427.132813 492.995972 421.688477 500.054993 418.252319 503.539001 C 413.925171 507.926331 409.559937 511.097107 404.052002 513.853943 C 399.678101 516.043152 393.602051 518.393188 390.549683 519.076294 C 385 520.318237 385 520.318237 385 525.659119 C 385 531 385 531 450.552246 531 C 505.534058 531 514.399963 531 515.651306 527.913208 C 515.891846 527.319763 515.851013 526.612244 515.802246 525.768677 C 515.5 520.537354 515.5 520.537354 501.694092 518.844177 C 494.100708 517.912903 485.427979 516.377136 482.421143 515.431396 C 479.300171 514.449707 475.092773 512.073303 472.616455 509.893555 C 470.031372 507.618042 467.364624 503.9505 466.016357 500.816284 C 464.030518 496.200256 463.815552 494.392212 464.258423 486.028625 C 464.62561 479.092712 465.560303 474.187195 467.693359 468 C 469.305054 463.325012 474.591309 450.387512 479.440674 439.25 L 488.257568 419 L 627.596924 419 L 635.956055 438.75 C 640.553589 449.612488 647.218872 465.415955 650.7677 473.868835 C 654.316528 482.321716 657.702637 492.054504 658.292358 495.497253 C 659.205933 500.830383 659.102417 502.44342 657.593018 506.39563 C 656.584473 509.03656 654.460205 512.062256 652.660767 513.420898 C 650.922363 514.733521 647.025024 516.572571 644 517.507751 C 640.583984 518.563843 633.47937 519.407593 625.25 519.734497 C 612 520.260925 612 520.260925 612 525.630432 L 612 531 Z M 2376 531 L 2566 531 L 2566 525.672852 C 2566 520.345703 2566 520.345703 2559.312744 519.113525 C 2555.634521 518.435791 2550.12207 516.700562 2547.062744 515.257385 C 2543.967773 513.797546 2539.277588 510.326233 2536.490479 507.432678 C 2533.735107 504.572205 2528.560059 497.341431 2524.990479 491.364197 C 2521.420654 485.387024 2515.431641 473.972351 2511.681396 465.998291 C 2507.931396 458.024231 2473.027832 379.049988 2434.118164 290.5 C 2364.266602 131.533203 2363.336182 129.49646 2360.436523 129.216919 C 2360.318359 129.205505 2360.205078 129.19458 2360.091553 129.194336 C 2357.385986 129.188538 2354.66748 135.262054 2287.098633 286.216919 C 2248.37793 372.722656 2212.983154 451.150024 2208.443604 460.5 C 2203.904053 469.849976 2197.784668 481.548401 2194.844971 486.496399 C 2191.585449 491.982666 2186.57373 498.440918 2182 503.048645 C 2177.126709 507.958313 2172.313965 511.695068 2168.258057 513.718445 C 2164.824951 515.431091 2158.862305 517.644775 2155.008057 518.637695 C 2148 520.442993 2148 520.442993 2148 525.721497 C 2148 531 2148 531 2213.5 531 C 2279 531 2279 531 2279 525.700439 C 2279 520.40094 2279 520.40094 2267.75 519.15271 C 2261.5625 518.466187 2253.49707 517.222778 2249.826904 516.389587 C 2246.156494 515.556335 2241.069824 513.494324 2238.522705 511.807312 C 2235.658936 509.910278 2232.7854 506.802612 2230.991943 503.662292 C 2229.314941 500.725891 2227.799561 496.247559 2227.398438 493.042358 C 2226.940918 489.387695 2227.24585 484.690796 2228.293457 479.252197 C 2229.167236 474.715881 2232.192627 465.265869 2235.016602 458.252197 C 2237.840332 451.238464 2242.729736 439.650024 2245.881592 432.5 L 2251.612305 419.5 L 2391.303711 419.5 L 2397.57373 434.28302 C 2401.022217 442.413696 2407.778564 458.385498 2412.587646 469.776062 C 2420.148193 487.683228 2421.393311 491.446899 2421.787109 497.585999 C 2422.134766 503.000183 2421.826904 505.562378 2420.491211 508.377075 C 2419.411377 510.653015 2417.10791 513.024536 2414.483398 514.562561 C 2412.142578 515.934448 2407.138428 517.711304 2403.363525 518.511108 C 2399.588623 519.310913 2391.887451 519.973083 2386.25 519.982666 C 2376 520 2376 520 2376 525.5 L 2376 531 Z M 2775 137 L 2580 137 L 2580 142.317139 C 2580 147.634277 2580 147.634277 2587.452148 149.391113 C 2591.550781 150.357422 2597.085449 152.234863 2599.750977 153.563232 C 2602.416504 154.891602 2607.360352 158.749634 2610.737061 162.136719 C 2614.113525 165.523926 2621.581055 175.091309 2627.331055 183.397583 C 2633.081299 191.703857 2661.537842 233.375 2690.568359 276 C 2719.598633 318.625 2743.365234 354.174988 2743.383057 355 C 2743.400635 355.825012 2728.836914 374.275024 2711.019043 396 C 2693.200928 417.724976 2672.099609 443.375 2664.126953 453 C 2656.154541 462.625 2642.401855 477.726074 2633.565674 486.557983 C 2624.729492 495.389832 2614.800049 504.37915 2611.5 506.53418 C 2608.199951 508.689209 2601.675049 511.897583 2597 513.663818 C 2592.324951 515.430115 2584.5625 517.674744 2579.75 518.651917 C 2571 520.428528 2571 520.428528 2571 525.714233 C 2571 531 2571 531 2647.052246 531 C 2711.780273 531 2721.418213 531 2722.666992 527.763306 C 2722.885498 527.197021 2722.847168 526.531738 2722.802246 525.75 C 2722.5 520.5 2722.5 520.5 2714 520.249084 C 2709.324951 520.111084 2702.285889 519.303589 2698.357422 518.454773 C 2694.428955 517.605896 2688.98584 515.800598 2686.26123 514.442932 C 2683.536865 513.085327 2679.602539 510.292725 2677.518311 508.237244 C 2675.434082 506.181763 2672.838867 502.52002 2671.751221 500.099976 C 2670.348145 496.977966 2669.919922 494.402039 2670.277344 491.231079 C 2670.554443 488.773193 2672.418213 483.553223 2674.418945 479.631104 C 2676.419922 475.708984 2680.956543 468.450012 2684.500488 463.5 C 2688.044434 458.549988 2705.694092 436.409607 2723.721924 414.299072 C 2741.75 392.188599 2756.81665 374.188599 2757.203613 374.299072 C 2757.590576 374.409607 2773.388184 397.450012 2792.309326 425.5 C 2811.230713 453.549988 2828.868652 480.22345 2831.504883 484.774414 C 2834.916016 490.662781 2836.435791 494.480225 2836.775146 498.012817 C 2837.038086 500.748779 2836.716797 504.269653 2836.059082 505.857117 C 2835.403076 507.441284 2833.433838 510.103333 2831.683105 511.772827 C 2829.932373 513.442261 2826.346436 515.526428 2823.7146 516.404236 C 2821.08252 517.282104 2814.89502 518.549744 2809.9646 519.221252 C 2801 520.442139 2801 520.442139 2801 525.721069 L 2801 531 L 2993 531 L 2993 525.683472 C 2993 520.366943 2993 520.366943 2986.363037 519.047668 C 2982.712646 518.322083 2976.690186 516.209778 2972.97998 514.353577 C 2968.23584 511.980225 2964.19043 508.827332 2959.346924 503.728394 C 2955.559082 499.740662 2948.94458 491.764587 2944.648438 486.003784 C 2940.352051 480.242981 2927.184082 461.245239 2915.38623 443.786499 C 2903.588623 426.327759 2877.037598 386.948853 2856.384277 356.277771 C 2821.651611 304.698303 2818.932861 300.35376 2820.166504 298.402283 C 2820.899902 297.241882 2838.818359 275.414185 2859.985107 249.89624 C 2881.151855 224.378296 2905.174072 195.69812 2913.367676 186.162476 C 2921.561523 176.626831 2931.243164 166.362793 2934.882813 163.353394 C 2938.522217 160.344116 2944.649902 156.327515 2948.5 154.427734 C 2952.350098 152.528076 2959.0271 150.304565 2963.337891 149.486816 C 2967.648926 148.669067 2973.38623 148 2976.087891 148 C 2981 148 2981 148 2981 142.5 L 2981 137 L 2836 137 L 2836 142.5 C 2836 148 2836 148 2841.316406 148 C 2844.240234 148 2849.302734 148.486694 2852.566406 149.081543 C 2855.829834 149.676392 2860.322754 150.961426 2862.550781 151.937256 C 2864.778809 152.912964 2868.295166 155.198242 2870.36499 157.015625 C 2872.434814 158.833008 2875.224609 162.483032 2876.564209 165.126709 C 2878.347656 168.645996 2879 171.55481 2879 175.986572 C 2879 180.023804 2878.2229 183.94812 2876.666992 187.769897 C 2875.383789 190.921387 2871.800781 197.550049 2868.705078 202.5 C 2865.609131 207.449951 2859.346436 216.31665 2854.788086 222.203735 C 2850.229736 228.09082 2837.5 243.933105 2826.5 257.408691 C 2815.5 270.884399 2806.274902 281.907959 2806 281.905762 C 2805.725098 281.903442 2791.324951 260.267944 2774 233.826904 C 2756.675049 207.385742 2741.011963 183.399658 2739.193115 180.524414 C 2736.88501 176.875977 2735.712646 173.616577 2735.312012 169.734741 C 2734.848145 165.239746 2735.16333 163.294067 2736.954834 159.593262 C 2738.174072 157.074707 2740.427734 154.119507 2741.963135 153.026245 C 2743.498535 151.932983 2747.379395 150.354858 2750.587402 149.519287 C 2753.79541 148.683716 2760.600586 148 2765.710205 148 C 2775 148 2775 148 2775 142.5 L 2775 137 Z M 3055.634521 190 C 3063.376709 201.275024 3091.851563 243.049438 3168.112793 355.164246 L 3159.806641 365.360291 C 3155.237793 370.968079 3139.153809 390.618591 3124.063477 409.028137 C 3108.973633 427.437683 3091.234131 448.970093 3084.643066 456.877991 C 3078.051758 464.78595 3067.448242 476.672852 3061.079346 483.293396 C 3054.710693 489.914001 3046.176514 497.981445 3042.114258 501.22113 C 3038.052246 504.460815 3031.752197 508.609436 3028.114258 510.440247 C 3024.476563 512.271057 3018.43457 514.714966 3014.687988 515.871094 C 3010.94165 517.027222 3004.979004 518.507019 3001.437988 519.159424 C 2995 520.345703 2995 520.345703 2995 525.672852 C 2995 531 2995 531 3070.5 531 L 3146 531 L 3146 525.637268 C 3146 520.274536 3146 520.274536 3134.25 519.726929 C 3125.862305 519.33606 3120.697266 518.550354 3116.200684 516.981201 C 3112.73584 515.772156 3107.788818 513.369324 3105.207031 511.641479 C 3102.314941 509.706055 3099.262451 506.405457 3097.256348 503.04425 C 3094.818848 498.96051 3094 496.408325 3094 492.895874 C 3094 489.33429 3095.072754 486.069946 3098.451416 479.351624 C 3100.899658 474.483215 3107.167969 464.875 3112.381348 458 C 3117.594238 451.125 3134.956543 429.525024 3150.964355 410 C 3166.97168 390.474976 3180.390625 374.405334 3180.78418 374.289673 C 3181.177734 374.174011 3197.25 397.467102 3216.5 426.052124 C 3235.75 454.637207 3253.400879 481.506836 3255.724121 485.762451 C 3258.046875 490.018127 3260.230469 495.378784 3260.576172 497.674988 C 3260.921875 499.971252 3260.698242 503.384521 3260.079102 505.260071 C 3259.460449 507.13562 3257.685059 509.88562 3256.134277 511.371277 C 3254.583496 512.856934 3251.02002 514.94458 3248.214844 516.010437 C 3245.409668 517.076294 3239.038574 518.491028 3234.057129 519.154236 C 3225 520.360168 3225 520.360168 3225 525.680054 L 3225 531 L 3321.052246 531 C 3404.636719 531 3415.486084 531 3416.695313 527.585876 C 3416.875732 527.07666 3416.841553 526.491455 3416.802246 525.818909 C 3416.5 520.637878 3416.5 520.637878 3409.189453 518.845398 C 3405.168945 517.859558 3399.103516 515.578552 3395.710449 513.776489 C 3392.317871 511.974426 3386.890137 507.799988 3383.649414 504.5 C 3380.408691 501.200012 3373.768555 493.172729 3368.893066 486.66156 C 3364.017578 480.150391 3348.080078 457.099365 3333.476563 435.437012 C 3318.873047 413.774658 3292.510742 374.652283 3274.894043 348.498352 C 3257.277344 322.344421 3243.006836 300.36908 3243.182129 299.664185 C 3243.356934 298.95929 3253.286621 286.595947 3265.248535 272.189941 C 3277.209961 257.784058 3297.944336 232.835449 3311.324707 216.748657 C 3324.705078 200.661865 3339.694824 183 3344.635254 177.5 C 3349.575684 172 3356.291016 165.326172 3359.558594 162.669189 C 3362.82666 160.012329 3367.975098 156.575439 3371 155.031616 C 3374.024902 153.487915 3378.975098 151.488159 3382 150.587769 C 3385.024902 149.687378 3391.4375 148.669434 3396.25 148.325562 C 3405 147.700562 3405 147.700562 3405 142.35022 C 3405 137 3405 137 3332.5 137 C 3260 137 3260 137 3260 142.351929 C 3260 147.703979 3260 147.703979 3268.75 148.300049 C 3273.5625 148.627808 3279.833008 149.603149 3282.68457 150.467407 C 3285.536133 151.331543 3290.103027 153.804321 3292.833496 155.962402 C 3296.09375 158.539795 3298.72998 161.792603 3300.515137 165.441528 C 3302.80957 170.131104 3303.170898 171.975464 3302.833496 177.275757 C 3302.543457 181.828491 3301.452637 185.608887 3298.864258 191.027344 C 3296.901367 195.137329 3292.571777 202.550049 3289.243652 207.5 C 3285.915527 212.449951 3277.398438 223.699951 3270.316895 232.5 C 3263.235352 241.300049 3251.202148 256.084717 3243.57666 265.35498 L 3229.711426 282.209839 L 3212.884766 256.585693 C 3203.629883 242.492432 3187.83252 218.505127 3177.778809 203.28064 C 3159.5 175.599609 3159.5 175.599609 3159.5 167.975342 C 3159.5 161.109131 3159.787598 159.973999 3162.391602 156.556763 C 3164.007813 154.435791 3167.31543 151.849976 3169.891602 150.693604 C 3173.488281 149.078979 3177.188965 148.529785 3186.75 148.19165 C 3199 147.758545 3199 147.758545 3199 142.379272 L 3199 137 L 3100.947754 137 C 3015.48999 137 3004.513184 137 3003.303467 140.437469 C 3003.125 140.944061 3003.158936 141.52533 3003.197754 142.192261 C 3003.5 147.384521 3003.5 147.384521 3010.832275 149.22583 C 3014.86499 150.238525 3020.264893 152.03894 3022.832275 153.226807 C 3025.399414 154.414673 3030.663086 158.562134 3034.529053 162.443359 C 3038.806396 166.737549 3047.068359 177.524902 3055.634521 190 Z M 3440.75 519.783752 C 3427 520.22699 3427 520.22699 3427 531 L 3633.104492 531 L 3632.802246 525.75 C 3632.5 520.5 3632.5 520.5 3618.5 519.902649 C 3607.51709 519.43396 3603.281738 518.83374 3598.847656 517.117249 C 3595.73877 515.913818 3591.138672 513.35907 3588.625 511.439941 C 3586.111816 509.520874 3582.911621 505.999329 3581.51416 503.614258 C 3579.559082 500.278015 3578.722168 496.881653 3577.887207 488.888916 C 3577.138672 481.725952 3576.916992 431.300842 3577.17334 326.5 C 3577.463379 208.043091 3577.821777 173.688477 3578.799316 170.822632 C 3579.489258 168.800171 3581.504395 164.987183 3583.276855 162.349365 C 3585.049805 159.711426 3588.004395 156.54541 3589.842773 155.313721 C 3591.681152 154.082031 3595.731445 152.099976 3598.842773 150.909058 C 3603.226563 149.231201 3607.651367 148.60376 3618.5 148.121948 C 3632.5 147.5 3632.5 147.5 3632.802246 142.25 L 3633.104492 137 L 3427 137 L 3427 142.371826 C 3427 147.743652 3427 147.743652 3440.75 148.233765 C 3451.703125 148.624268 3455.669922 149.173706 3460.251953 150.93457 C 3463.415527 152.150513 3468.196289 154.878174 3470.875977 156.996094 C 3473.753906 159.270996 3476.673828 162.76001 3478.010742 165.521729 C 3479.678223 168.966919 3480.527344 173.261719 3481.238281 181.848267 C 3481.824219 188.921631 3482.060059 252.244141 3481.838379 343 C 3481.500977 481.43927 3481.346191 492.876465 3479.746094 497.588379 C 3478.795898 500.387024 3477.001953 504.170227 3475.759277 505.995544 C 3474.516602 507.820923 3471.910156 510.593445 3469.966797 512.156738 C 3468.023438 513.720032 3463.748047 515.975952 3460.466797 517.169861 C 3455.776367 518.876221 3451.558594 519.435364 3440.75 519.783752 Z M 616.545532 395.25 C 617.17749 396.90448 613.9823 397 558 397 C 509.339722 397 498.876343 396.764526 499.292969 395.678894 C 499.571777 394.952271 512.955444 364.802246 529.034424 328.678894 C 545.113403 292.555481 558.546021 263.001831 558.884521 263.00415 C 559.223022 263.006348 572.184814 292.368835 587.688477 328.254089 C 603.192139 364.139343 616.177856 394.287476 616.545532 395.25 Z M 2350.687012 327 C 2363.654541 356.974976 2375.762939 384.987488 2380.924072 397 L 2262.098633 397 L 2267.015869 385.985046 C 2269.720215 379.926819 2283.280273 349.496643 2297.14917 318.362366 C 2316.859863 274.113434 2321.16333 264.45285 2323.23584 264.909821 C 2323.814697 265.037445 2324.219482 265.954346 2324.737305 267.127319 C 2326.041992 270.082275 2337.719238 297.025024 2350.687012 327 Z M 1769.425781 333.141052 C 1771.083984 333.561462 1773.524902 333.746826 1775.98584 333.639404 C 1778.638794 333.523499 1780.885254 333.107239 1782.938721 332.351013 C 1784.607178 331.736572 1786.993408 330.558716 1788.241211 329.733521 C 1789.489136 328.908325 1811.881592 306.823853 1838.002319 280.656982 C 1864.122925 254.48999 1887.550537 230.904907 1890.063721 228.245605 C 1893.654907 224.445435 1895.010742 222.619751 1896.398193 219.715454 C 1897.515137 217.377686 1898.359131 214.748047 1898.695801 212.556396 C 1899.140259 209.66394 1899.105347 208.490845 1898.484375 205.445679 C 1898.075317 203.439819 1897.003662 200.246948 1896.103027 198.35022 C 1894.842651 195.696411 1893.59082 194.031494 1890.671509 191.126221 C 1888.039551 188.506958 1885.960205 186.904175 1883.880859 185.891846 C 1882.232422 185.089355 1879.28479 184.087769 1877.330566 183.665894 C 1874.033203 182.954346 1873.502197 182.953247 1869.959106 183.651367 C 1867.8125 184.074219 1864.661621 185.134644 1862.762207 186.073364 C 1859.80603 187.534424 1858.075195 189.030273 1848.923462 198.032959 C 1843.17041 203.692261 1829.055786 217.764893 1817.557495 229.30542 C 1806.059204 240.845947 1789.597168 257.309814 1780.975098 265.891724 C 1772.353271 274.473633 1762.604126 284.385376 1759.310547 287.917969 C 1755.479004 292.027466 1752.841064 295.293823 1751.98645 296.986694 C 1751.251831 298.441895 1750.302612 300.884888 1749.877197 302.415405 C 1749.293579 304.51416 1749.169189 306.212402 1749.370605 309.322388 C 1749.576172 312.495605 1749.976807 314.260864 1751.108521 316.97937 C 1751.91748 318.922363 1753.366333 321.485474 1754.328369 322.674927 C 1755.290283 323.86438 1756.562622 325.362061 1757.15564 326.003174 C 1757.748657 326.644165 1759.063965 327.810181 1760.078247 328.594116 C 1761.092651 329.378174 1763.016602 330.571289 1764.35376 331.245605 C 1765.690918 331.919922 1767.973389 332.772888 1769.425781 333.141052 Z M 1585.786499 152.706787 C 1586.547241 152.786255 1588.658447 152.698486 1590.478149 152.511719 C 1592.297729 152.325073 1594.940186 151.740723 1596.350342 151.213135 C 1597.760498 150.685547 1600.110596 149.454956 1601.572998 148.478394 C 1603.142822 147.430176 1617.073364 133.845703 1635.584961 115.311523 C 1652.829224 98.046265 1676.244263 74.530762 1687.618408 63.054932 C 1699.480713 51.086304 1709.058594 41.038818 1710.081299 39.490356 C 1711.06189 38.005737 1712.302612 35.619629 1712.838501 34.187866 C 1713.403809 32.67749 1713.918701 29.939331 1714.064941 27.665405 C 1714.247437 24.827026 1714.107056 22.929321 1713.555908 20.784668 C 1713.137451 19.156006 1712.156616 16.562378 1711.376343 15.021118 C 1710.596191 13.479858 1709.238281 11.336914 1708.358887 10.258789 C 1707.479614 9.180908 1705.996094 7.568359 1705.062256 6.675537 C 1704.128296 5.782715 1702.430542 4.448242 1701.289307 3.710083 C 1700.148193 2.971924 1697.621704 1.835083 1695.675049 1.18396 C 1693.411377 0.426758 1691.117432 0 1689.310791 0 C 1687.75708 0 1685.096436 0.320557 1683.397949 0.712524 C 1681.699463 1.10437 1678.875488 2.193726 1677.122314 3.133179 C 1674.321533 4.634277 1670.958984 7.826782 1649.400635 29.453247 C 1635.906738 42.989746 1611.781372 67.162476 1595.788574 83.170166 C 1566.710571 112.275269 1566.710571 112.275269 1564.841797 116.19458 C 1563.550049 118.903687 1562.823486 121.202271 1562.488892 123.639038 C 1562.171997 125.946167 1562.155029 128.097778 1562.439697 129.865723 C 1562.678955 131.351563 1563.288574 133.744629 1563.794434 135.183594 C 1564.300171 136.622681 1565.481445 138.956299 1566.419434 140.369507 C 1567.357544 141.782715 1569.449707 144.15271 1571.068604 145.63623 C 1572.687622 147.119751 1575.288574 149.013794 1576.848633 149.845337 C 1578.408569 150.676758 1580.74646 151.628296 1582.044067 151.959717 C 1583.341553 152.291138 1585.025635 152.627319 1585.786499 152.706787 Z"/>
</svg>
